<svg width="167" height="190" viewBox="0 0 167 190" fill="none" xmlns="http://www.w3.org/2000/svg">
<g filter="url(#filter0_dd_235_658)">
<g filter="url(#filter1_i_235_658)">
<path d="M111.814 80.2751L81.6348 40.3498L51.4561 80.2751V102.127V122.016L58.6651 129.823L66.5493 138.351H96.728L104.604 129.823L111.814 122.016V80.2751Z" fill="url(#paint0_linear_235_658)"/>
</g>
<path d="M96.7282 138.351L91.2729 124.74L100.903 112.945L111.814 122.016L96.7282 138.351Z" fill="url(#paint1_linear_235_658)"/>
<path opacity="0.7" d="M111.814 80.2752L100.903 90.2624V112.945L111.814 122.016V80.2752Z" fill="url(#paint2_linear_235_658)"/>
<path opacity="0.7" d="M111.814 80.2752L100.903 90.2624V112.945L111.814 122.016V80.2752Z" fill="url(#paint3_linear_235_658)"/>
<path opacity="0.7" d="M81.6345 40.3497V62.4348L100.903 90.2622L111.813 80.2751L81.6345 40.3497Z" fill="url(#paint4_linear_235_658)"/>
<path d="M96.7281 138.351L91.2728 124.74H72.0046L66.5493 138.351H96.7281Z" fill="url(#paint5_linear_235_658)"/>
<path d="M51.4561 122.016L62.3744 112.945L72.0046 124.74L66.5493 138.351L51.4561 122.016Z" fill="url(#paint6_linear_235_658)"/>
<path d="M51.4561 122.016L62.3744 112.945L72.0046 124.74L66.5493 138.351L51.4561 122.016Z" fill="url(#paint7_linear_235_658)"/>
<path opacity="0.7" d="M51.4561 122.016L62.3744 112.945L62.3744 90.2622L51.4561 80.2751L51.4561 122.016Z" fill="url(#paint8_linear_235_658)"/>
<path opacity="0.7" d="M51.4561 122.016L62.3744 112.945L62.3744 90.2622L51.4561 80.2751L51.4561 122.016Z" fill="url(#paint9_linear_235_658)"/>
<path d="M51.4561 80.2751L81.6348 40.3498V62.4348L62.3744 90.2623L51.4561 80.2751Z" fill="url(#paint10_linear_235_658)" style="mix-blend-mode:hard-light"/>
<path d="M72.005 124.74L58.6655 129.823L62.3748 112.945L72.005 124.74Z" fill="url(#paint11_linear_235_658)" style="mix-blend-mode:hard-light"/>
<path d="M91.2729 124.74L104.605 129.823L100.903 112.945L91.2729 124.74Z" fill="url(#paint12_linear_235_658)" style="mix-blend-mode:hard-light"/>
<path d="M81.6345 40.3497V62.4348L111.813 80.2751L81.6345 40.3497Z" fill="url(#paint13_linear_235_658)" style="mix-blend-mode:hard-light"/>
<path d="M81.6345 40.3497V62.4348L111.813 80.2751L81.6345 40.3497Z" fill="url(#paint14_linear_235_658)" style="mix-blend-mode:hard-light"/>
<path d="M81.6347 40.3497V62.4348L62.3743 90.2622L81.6347 40.3497Z" fill="url(#paint15_radial_235_658)" fill-opacity="0.5"/>
<path d="M81.6347 40.3497V62.4348L62.3743 90.2622L81.6347 40.3497Z" fill="url(#paint16_radial_235_658)" fill-opacity="0.5"/>
<g filter="url(#filter2_i_235_658)">
<path d="M62.2737 112.751L72.3617 124.779H90.9858L100.686 112.751V90.6349L81.6737 62.3108L62.2737 90.6349V112.751Z" fill="white" fill-opacity="0.01"/>
</g>
<path d="M97.8609 116.67L100.903 112.945V90.2624L81.6347 62.4349L66.7122 83.9923C80.0206 91.5893 90.8924 102.966 97.8609 116.67Z" fill="url(#paint17_linear_235_658)" style="mix-blend-mode:hard-light"/>
<path d="M97.8609 116.67L100.903 112.945V90.2624L81.6347 62.4349L66.7122 83.9923C80.0206 91.5893 90.8924 102.966 97.8609 116.67Z" fill="url(#paint18_radial_235_658)" style="mix-blend-mode:hard-light"/>
<path d="M111.814 122.016L96.115 136.823H67.1623L52.6511 121.031L51.4561 102.128V122.016L66.5493 138.351H96.728L111.814 122.016Z" fill="url(#paint19_linear_235_658)" style="mix-blend-mode:hard-light"/>
<path opacity="0.81" d="M73.6497 73.9741L81.6347 64.5767L99.9484 90.7513L100.903 112.945V90.2624L81.6347 62.4349L73.6497 73.9741Z" fill="url(#paint20_linear_235_658)"/>
<path d="M81.6348 40.3498V62.4348L51.4561 80.2751L81.6348 40.3498Z" fill="url(#paint21_linear_235_658)" style="mix-blend-mode:multiply"/>
<path d="M81.6348 40.3498V62.4348L51.4561 80.2751L81.6348 40.3498Z" fill="url(#paint22_linear_235_658)" style="mix-blend-mode:multiply"/>
<g filter="url(#filter3_i_235_658)">
<path d="M62.2737 112.751L72.3617 124.779H90.9858L100.686 112.751V90.6349L81.6737 62.3108L62.2737 90.6349V112.751Z" fill="url(#paint23_radial_235_658)"/>
</g>
<g filter="url(#filter4_i_235_658)">
<path d="M62.2737 112.751L72.3617 124.779H90.9858L100.686 112.751V90.6349L81.6737 62.3108L62.2737 90.6349V112.751Z" fill="url(#paint24_radial_235_658)"/>
</g>
<path fill-rule="evenodd" clip-rule="evenodd" d="M71.2213 69.4272L72.3242 96.6482L73.4271 69.4271L100.648 68.3243L73.4269 67.2214L72.324 40L71.2211 67.2214L44 68.3243L71.2213 69.4272Z" fill="url(#paint25_radial_235_658)" style="mix-blend-mode:hard-light"/>
<path fill-rule="evenodd" clip-rule="evenodd" d="M86.0322 125.731L86.6818 141.766L87.3315 125.732L103.366 125.082L87.3321 124.432L86.6825 108.398L86.0328 124.432L69.9983 125.082L86.0322 125.731Z" fill="url(#paint26_radial_235_658)" style="mix-blend-mode:hard-light"/>
<path fill-rule="evenodd" clip-rule="evenodd" d="M105.156 91.9629L105.806 107.998L106.456 91.9632L122.49 91.3135L106.456 90.6639L105.806 74.6294L105.157 90.6636L89.1223 91.3132L105.156 91.9629Z" fill="url(#paint27_radial_235_658)" style="mix-blend-mode:hard-light"/>
</g>
<defs>
<filter id="filter0_dd_235_658" x="0" y="0" width="166.49" height="189.766" filterUnits="userSpaceOnUse" color-interpolation-filters="sRGB">
<feFlood flood-opacity="0" result="BackgroundImageFix"/>
<feColorMatrix in="SourceAlpha" type="matrix" values="0 0 0 0 0 0 0 0 0 0 0 0 0 0 0 0 0 0 127 0" result="hardAlpha"/>
<feOffset dy="4"/>
<feGaussianBlur stdDeviation="22"/>
<feComposite in2="hardAlpha" operator="out"/>
<feColorMatrix type="matrix" values="0 0 0 0 0.275 0 0 0 0 1 0 0 0 0 0.9565 0 0 0 0.5 0"/>
<feBlend mode="normal" in2="BackgroundImageFix" result="effect1_dropShadow_235_658"/>
<feColorMatrix in="SourceAlpha" type="matrix" values="0 0 0 0 0 0 0 0 0 0 0 0 0 0 0 0 0 0 127 0" result="hardAlpha"/>
<feOffset dy="4"/>
<feGaussianBlur stdDeviation="2"/>
<feComposite in2="hardAlpha" operator="out"/>
<feColorMatrix type="matrix" values="0 0 0 0 0 0 0 0 0 0 0 0 0 0 0 0 0 0 0.8 0"/>
<feBlend mode="normal" in2="effect1_dropShadow_235_658" result="effect2_dropShadow_235_658"/>
<feBlend mode="normal" in="SourceGraphic" in2="effect2_dropShadow_235_658" result="shape"/>
</filter>
<filter id="filter1_i_235_658" x="51.4561" y="40.3498" width="60.3574" height="102.001" filterUnits="userSpaceOnUse" color-interpolation-filters="sRGB">
<feFlood flood-opacity="0" result="BackgroundImageFix"/>
<feBlend mode="normal" in="SourceGraphic" in2="BackgroundImageFix" result="shape"/>
<feColorMatrix in="SourceAlpha" type="matrix" values="0 0 0 0 0 0 0 0 0 0 0 0 0 0 0 0 0 0 127 0" result="hardAlpha"/>
<feOffset dy="4"/>
<feGaussianBlur stdDeviation="6"/>
<feComposite in2="hardAlpha" operator="arithmetic" k2="-1" k3="1"/>
<feColorMatrix type="matrix" values="0 0 0 0 0.0023264 0 0 0 0 0.229335 0 0 0 0 0.279167 0 0 0 1 0"/>
<feBlend mode="normal" in2="shape" result="effect1_innerShadow_235_658"/>
</filter>
<filter id="filter2_i_235_658" x="62.2737" y="62.3108" width="38.4121" height="66.4682" filterUnits="userSpaceOnUse" color-interpolation-filters="sRGB">
<feFlood flood-opacity="0" result="BackgroundImageFix"/>
<feBlend mode="normal" in="SourceGraphic" in2="BackgroundImageFix" result="shape"/>
<feColorMatrix in="SourceAlpha" type="matrix" values="0 0 0 0 0 0 0 0 0 0 0 0 0 0 0 0 0 0 127 0" result="hardAlpha"/>
<feOffset dy="4"/>
<feGaussianBlur stdDeviation="30"/>
<feComposite in2="hardAlpha" operator="arithmetic" k2="-1" k3="1"/>
<feColorMatrix type="matrix" values="0 0 0 0 1 0 0 0 0 1 0 0 0 0 1 0 0 0 0.25 0"/>
<feBlend mode="hard-light" in2="shape" result="effect1_innerShadow_235_658"/>
</filter>
<filter id="filter3_i_235_658" x="62.2737" y="62.3108" width="38.4121" height="66.4682" filterUnits="userSpaceOnUse" color-interpolation-filters="sRGB">
<feFlood flood-opacity="0" result="BackgroundImageFix"/>
<feBlend mode="normal" in="SourceGraphic" in2="BackgroundImageFix" result="shape"/>
<feColorMatrix in="SourceAlpha" type="matrix" values="0 0 0 0 0 0 0 0 0 0 0 0 0 0 0 0 0 0 127 0" result="hardAlpha"/>
<feOffset dy="4"/>
<feGaussianBlur stdDeviation="30"/>
<feComposite in2="hardAlpha" operator="arithmetic" k2="-1" k3="1"/>
<feColorMatrix type="matrix" values="0 0 0 0 1 0 0 0 0 1 0 0 0 0 1 0 0 0 0.25 0"/>
<feBlend mode="hard-light" in2="shape" result="effect1_innerShadow_235_658"/>
</filter>
<filter id="filter4_i_235_658" x="62.2737" y="62.3108" width="38.4121" height="66.4682" filterUnits="userSpaceOnUse" color-interpolation-filters="sRGB">
<feFlood flood-opacity="0" result="BackgroundImageFix"/>
<feBlend mode="normal" in="SourceGraphic" in2="BackgroundImageFix" result="shape"/>
<feColorMatrix in="SourceAlpha" type="matrix" values="0 0 0 0 0 0 0 0 0 0 0 0 0 0 0 0 0 0 127 0" result="hardAlpha"/>
<feOffset dy="4"/>
<feGaussianBlur stdDeviation="30"/>
<feComposite in2="hardAlpha" operator="arithmetic" k2="-1" k3="1"/>
<feColorMatrix type="matrix" values="0 0 0 0 1 0 0 0 0 1 0 0 0 0 1 0 0 0 0.25 0"/>
<feBlend mode="hard-light" in2="shape" result="effect1_innerShadow_235_658"/>
</filter>
<linearGradient id="paint0_linear_235_658" x1="89.7896" y1="70.3691" x2="70.9381" y2="141.546" gradientUnits="userSpaceOnUse">
<stop stop-color="#00FF94"/>
<stop offset="1" stop-color="#00DB1E"/>
</linearGradient>
<linearGradient id="paint1_linear_235_658" x1="105.417" y1="131.773" x2="95.9898" y2="118.694" gradientUnits="userSpaceOnUse">
<stop stop-color="#6AC229"/>
<stop offset="1" stop-color="#298920"/>
</linearGradient>
<linearGradient id="paint2_linear_235_658" x1="98.2" y1="92.744" x2="118.381" y2="105.2" gradientUnits="userSpaceOnUse">
<stop stop-color="#B9F031"/>
<stop offset="1" stop-color="#1C4700"/>
</linearGradient>
<linearGradient id="paint3_linear_235_658" x1="98.2" y1="92.744" x2="118.381" y2="105.2" gradientUnits="userSpaceOnUse">
<stop stop-color="#B9F031"/>
<stop offset="1" stop-color="#1C4700"/>
</linearGradient>
<linearGradient id="paint4_linear_235_658" x1="105.341" y1="57.2666" x2="100.685" y2="90.6347" gradientUnits="userSpaceOnUse">
<stop stop-color="#355309"/>
<stop offset="1" stop-color="#55A209"/>
</linearGradient>
<linearGradient id="paint5_linear_235_658" x1="91.7616" y1="124.779" x2="81.6377" y2="141.084" gradientUnits="userSpaceOnUse">
<stop stop-color="#127607"/>
<stop offset="1" stop-color="#409F04"/>
</linearGradient>
<linearGradient id="paint6_linear_235_658" x1="60.0339" y1="129.169" x2="67.8884" y2="121.422" gradientUnits="userSpaceOnUse">
<stop stop-color="#8ED22C"/>
<stop offset="1" stop-color="#1B984D"/>
</linearGradient>
<linearGradient id="paint7_linear_235_658" x1="60.0339" y1="129.169" x2="67.8884" y2="121.422" gradientUnits="userSpaceOnUse">
<stop stop-color="#8ED22C"/>
<stop offset="1" stop-color="#1B984D"/>
</linearGradient>
<linearGradient id="paint8_linear_235_658" x1="62.2735" y1="112.363" x2="52.5735" y2="80.5467" gradientUnits="userSpaceOnUse">
<stop stop-color="#083E06"/>
<stop offset="1" stop-color="#329221"/>
</linearGradient>
<linearGradient id="paint9_linear_235_658" x1="62.2735" y1="112.363" x2="52.5735" y2="80.5467" gradientUnits="userSpaceOnUse">
<stop stop-color="#083E06"/>
<stop offset="1" stop-color="#329221"/>
</linearGradient>
<linearGradient id="paint10_linear_235_658" x1="66.5485" y1="91.2677" x2="66.5485" y2="56.6389" gradientUnits="userSpaceOnUse">
<stop stop-color="#04390D"/>
<stop offset="1" stop-color="#5BBB07"/>
</linearGradient>
<linearGradient id="paint11_linear_235_658" x1="62.7584" y1="131.051" x2="67.4397" y2="118.149" gradientUnits="userSpaceOnUse">
<stop stop-color="white"/>
<stop offset="1" stop-color="#5BBB07"/>
</linearGradient>
<linearGradient id="paint12_linear_235_658" x1="100.518" y1="131.051" x2="95.8363" y2="118.149" gradientUnits="userSpaceOnUse">
<stop stop-color="white"/>
<stop offset="1" stop-color="#5BBB07"/>
</linearGradient>
<linearGradient id="paint13_linear_235_658" x1="101.115" y1="83.4504" x2="88.0441" y2="47.4273" gradientUnits="userSpaceOnUse">
<stop stop-color="white"/>
<stop offset="1" stop-color="#5BBB07"/>
</linearGradient>
<linearGradient id="paint14_linear_235_658" x1="101.115" y1="83.4504" x2="88.0441" y2="47.4273" gradientUnits="userSpaceOnUse">
<stop stop-color="white"/>
<stop offset="1" stop-color="#5BBB07"/>
</linearGradient>
<radialGradient id="paint15_radial_235_658" cx="0" cy="0" r="1" gradientUnits="userSpaceOnUse" gradientTransform="translate(64.2135 61.1466) rotate(-18.2576) scale(39.6312 39.6313)">
<stop stop-color="white"/>
<stop offset="1" stop-color="#5BBB07" stop-opacity="0"/>
</radialGradient>
<radialGradient id="paint16_radial_235_658" cx="0" cy="0" r="1" gradientUnits="userSpaceOnUse" gradientTransform="translate(64.2135 61.1466) rotate(-18.2576) scale(39.6312 39.6313)">
<stop stop-color="white"/>
<stop offset="1" stop-color="#5BBB07" stop-opacity="0"/>
</radialGradient>
<linearGradient id="paint17_linear_235_658" x1="66.7115" y1="89.5504" x2="100.904" y2="89.5504" gradientUnits="userSpaceOnUse">
<stop stop-color="#ADEC7A"/>
<stop offset="1" stop-color="#298920"/>
</linearGradient>
<radialGradient id="paint18_radial_235_658" cx="0" cy="0" r="1" gradientUnits="userSpaceOnUse" gradientTransform="translate(81.6735 94.9029) rotate(-49.9271) scale(95.8308 88.3521)">
<stop stop-color="white"/>
<stop offset="1" stop-color="#22FF0E"/>
</radialGradient>
<linearGradient id="paint19_linear_235_658" x1="88.3944" y1="140.639" x2="74.8679" y2="103.361" gradientUnits="userSpaceOnUse">
<stop stop-color="white"/>
<stop offset="1" stop-color="#5BBB07"/>
</linearGradient>
<linearGradient id="paint20_linear_235_658" x1="91.515" y1="77.4512" x2="83.1222" y2="109.14" gradientUnits="userSpaceOnUse">
<stop stop-color="white"/>
<stop offset="1" stop-color="#5BBB07"/>
</linearGradient>
<linearGradient id="paint21_linear_235_658" x1="51.0214" y1="81.3228" x2="86.3296" y2="40.1946" gradientUnits="userSpaceOnUse">
<stop stop-color="white"/>
<stop offset="1" stop-color="#326505"/>
</linearGradient>
<linearGradient id="paint22_linear_235_658" x1="51.0214" y1="81.3228" x2="86.3296" y2="40.1946" gradientUnits="userSpaceOnUse">
<stop stop-color="white"/>
<stop offset="1" stop-color="#326505"/>
</linearGradient>
<radialGradient id="paint23_radial_235_658" cx="0" cy="0" r="1" gradientUnits="userSpaceOnUse" gradientTransform="translate(78.9577 98.0069) rotate(84.6185) scale(26.8906 16.5352)">
<stop stop-color="#FCFF77"/>
<stop offset="1" stop-color="#FCFF5B" stop-opacity="0"/>
</radialGradient>
<radialGradient id="paint24_radial_235_658" cx="0" cy="0" r="1" gradientUnits="userSpaceOnUse" gradientTransform="translate(78.9577 98.0069) rotate(84.6185) scale(26.8906 16.5352)">
<stop stop-color="#FCFF77"/>
<stop offset="1" stop-color="#FCFF5B" stop-opacity="0"/>
</radialGradient>
<radialGradient id="paint25_radial_235_658" cx="0" cy="0" r="1" gradientUnits="userSpaceOnUse" gradientTransform="translate(72.324 68.3241) rotate(90) scale(28.3241 28.324)">
<stop stop-color="white"/>
<stop offset="1" stop-color="white" stop-opacity="0"/>
</radialGradient>
<radialGradient id="paint26_radial_235_658" cx="0" cy="0" r="1" gradientUnits="userSpaceOnUse" gradientTransform="translate(86.6823 125.082) rotate(90) scale(16.6841)">
<stop stop-color="white"/>
<stop offset="1" stop-color="white" stop-opacity="0"/>
</radialGradient>
<radialGradient id="paint27_radial_235_658" cx="0" cy="0" r="1" gradientUnits="userSpaceOnUse" gradientTransform="translate(105.806 91.3135) rotate(90) scale(16.6841)">
<stop stop-color="white"/>
<stop offset="1" stop-color="white" stop-opacity="0"/>
</radialGradient>
</defs>
</svg>
