<svg width="150" height="22" viewBox="0 0 150 22" fill="none" xmlns="http://www.w3.org/2000/svg">
<path d="M149.355 17.9351C149.871 17.7392 150.131 17.1618 149.935 16.6454L146.743 8.23046C146.547 7.71407 145.97 7.45425 145.453 7.65012C144.937 7.84599 144.677 8.42338 144.873 8.93977L147.71 16.4197L140.23 19.257C139.714 19.4529 139.454 20.0302 139.65 20.5466C139.846 21.063 140.423 21.3228 140.94 21.127L149.355 17.9351ZM1.41702 17.909C43.6634 -1.47473 100.862 -3.56559 148.59 17.912L149.41 16.0882C101.138 -5.63423 43.3366 -3.52527 0.582976 16.0912L1.41702 17.909Z" fill="url(#paint0_linear_68_670)"/>
<defs>
<linearGradient id="paint0_linear_68_670" x1="149" y1="17" x2="1" y2="17" gradientUnits="userSpaceOnUse">
<stop stop-color="#2864FF"/>
<stop offset="1" stop-color="#2864FF" stop-opacity="0"/>
</linearGradient>
</defs>
</svg>
