<svg width="150" height="21" viewBox="0 0 150 21" fill="none" xmlns="http://www.w3.org/2000/svg">
<path d="M149.355 3.64249C149.871 3.83836 150.131 4.41575 149.935 4.93214L146.743 13.3471C146.547 13.8635 145.97 14.1233 145.453 13.9275C144.937 13.7316 144.677 13.1542 144.873 12.6378L147.71 5.15783L140.23 2.32059C139.714 2.12473 139.454 1.54733 139.65 1.03094C139.846 0.514559 140.423 0.25473 140.94 0.4506L149.355 3.64249ZM1.41702 3.66859C43.6634 23.0523 100.862 25.1432 148.59 3.66556L149.41 5.48941C101.138 27.2118 43.3366 25.1028 0.582976 5.48638L1.41702 3.66859Z" fill="url(#paint0_linear_68_676)"/>
<defs>
<linearGradient id="paint0_linear_68_676" x1="149" y1="4.57757" x2="1" y2="4.57757" gradientUnits="userSpaceOnUse">
<stop stop-color="#2864FF"/>
<stop offset="1" stop-color="#2864FF" stop-opacity="0"/>
</linearGradient>
</defs>
</svg>
