<svg width="50" height="52" viewBox="0 0 50 52" fill="none" xmlns="http://www.w3.org/2000/svg">
<g filter="url(#filter0_ddii_235_752)">
<path d="M35.1233 15.1234C35.9741 15.6029 36.6807 16.2923 37.1721 17.1225C37.6636 17.9527 37.9227 18.8946 37.9233 19.8534V28.1361C37.9238 29.0951 37.6652 30.0374 37.1736 30.8678C36.682 31.6982 35.9748 32.3874 35.1233 32.866L27.8002 36.9969C26.9493 37.4776 25.9834 37.7308 25.0002 37.7308C24.017 37.7308 23.0512 37.4776 22.2002 36.9969L14.8771 32.845C14.0288 32.3682 13.3236 31.6823 12.8322 30.8559C12.3408 30.0294 12.0805 29.0916 12.0771 28.1361L12.0771 19.8534C12.0778 18.8946 12.3368 17.9527 12.8283 17.1225C13.3198 16.2923 14.0264 15.6029 14.8771 15.1234L22.2002 11.0031C23.0512 10.5224 24.017 10.2692 25.0002 10.2692C25.9834 10.2692 26.9493 10.5224 27.8002 11.0031L35.1233 15.1234ZM23.1802 12.8741L16.051 16.8998C15.4966 17.2085 15.036 17.6553 14.7162 18.1945C14.3965 18.7337 14.2291 19.346 14.231 19.969V28.0099C14.2302 28.6327 14.3981 29.2447 14.7177 29.7837C15.0373 30.3227 15.4973 30.7696 16.051 31.0792L23.1802 35.1049C23.7343 35.4147 24.3617 35.5776 25.0002 35.5776C25.6387 35.5776 26.2662 35.4147 26.8202 35.1049L33.9495 31.0792C34.5031 30.7696 34.9631 30.3227 35.2828 29.7837C35.6024 29.2447 35.7703 28.6327 35.7695 28.0099V19.969C35.7714 19.346 35.604 18.7337 35.2842 18.1945C34.9645 17.6553 34.5039 17.2085 33.9495 16.8998L26.8202 12.8741C26.2662 12.5643 25.6387 12.4013 25.0002 12.4013C24.3617 12.4013 23.7343 12.5643 23.1802 12.8741ZM26.4971 15.1234L32.1187 18.2767C32.5695 18.5307 32.9446 18.8951 33.2071 19.3337C33.4697 19.7724 33.6104 20.2704 33.6156 20.7784V27.085C33.6164 27.597 33.4783 28.1001 33.2154 28.5431C32.9525 28.9862 32.5741 29.3535 32.1187 29.6076L26.4971 32.7609C26.0427 33.0195 25.5262 33.1557 25.0002 33.1557C24.4743 33.1557 23.9577 33.0195 23.5033 32.7609L17.8818 29.6076C17.4373 29.3598 17.066 29.0041 16.8037 28.575C16.5414 28.1459 16.3972 27.658 16.3848 27.1586V20.7784C16.3919 20.2722 16.5335 19.7764 16.796 19.3397C17.0584 18.903 17.4325 18.5403 17.8818 18.2873L23.5033 15.134C23.9577 14.8754 24.4743 14.7392 25.0002 14.7392C25.5262 14.7392 26.0427 14.8754 26.4971 15.134V15.1234ZM21.7695 27.1375H28.231V20.8309H21.7695V27.1375Z" fill="url(#paint0_linear_235_752)"/>
</g>
<defs>
<filter id="filter0_ddii_235_752" x="0.0771484" y="0.269226" width="49.8462" height="51.4615" filterUnits="userSpaceOnUse" color-interpolation-filters="sRGB">
<feFlood flood-opacity="0" result="BackgroundImageFix"/>
<feColorMatrix in="SourceAlpha" type="matrix" values="0 0 0 0 0 0 0 0 0 0 0 0 0 0 0 0 0 0 127 0" result="hardAlpha"/>
<feOffset dy="2"/>
<feGaussianBlur stdDeviation="6"/>
<feComposite in2="hardAlpha" operator="out"/>
<feColorMatrix type="matrix" values="0 0 0 0 1 0 0 0 0 0.901917 0 0 0 0 0.554167 0 0 0 0.5 0"/>
<feBlend mode="normal" in2="BackgroundImageFix" result="effect1_dropShadow_235_752"/>
<feColorMatrix in="SourceAlpha" type="matrix" values="0 0 0 0 0 0 0 0 0 0 0 0 0 0 0 0 0 0 127 0" result="hardAlpha"/>
<feOffset dy="4"/>
<feGaussianBlur stdDeviation="2"/>
<feComposite in2="hardAlpha" operator="out"/>
<feColorMatrix type="matrix" values="0 0 0 0 0 0 0 0 0 0 0 0 0 0 0 0 0 0 0.65 0"/>
<feBlend mode="normal" in2="effect1_dropShadow_235_752" result="effect2_dropShadow_235_752"/>
<feBlend mode="normal" in="SourceGraphic" in2="effect2_dropShadow_235_752" result="shape"/>
<feColorMatrix in="SourceAlpha" type="matrix" values="0 0 0 0 0 0 0 0 0 0 0 0 0 0 0 0 0 0 127 0" result="hardAlpha"/>
<feOffset dy="-2"/>
<feGaussianBlur stdDeviation="0.5"/>
<feComposite in2="hardAlpha" operator="arithmetic" k2="-1" k3="1"/>
<feColorMatrix type="matrix" values="0 0 0 0 0 0 0 0 0 0 0 0 0 0 0 0 0 0 0.15 0"/>
<feBlend mode="overlay" in2="shape" result="effect3_innerShadow_235_752"/>
<feColorMatrix in="SourceAlpha" type="matrix" values="0 0 0 0 0 0 0 0 0 0 0 0 0 0 0 0 0 0 127 0" result="hardAlpha"/>
<feOffset dy="1"/>
<feGaussianBlur stdDeviation="2"/>
<feComposite in2="hardAlpha" operator="arithmetic" k2="-1" k3="1"/>
<feColorMatrix type="matrix" values="0 0 0 0 1 0 0 0 0 1 0 0 0 0 1 0 0 0 0.8 0"/>
<feBlend mode="overlay" in2="effect3_innerShadow_235_752" result="effect4_innerShadow_235_752"/>
</filter>
<linearGradient id="paint0_linear_235_752" x1="25.0002" y1="10.2692" x2="25.0002" y2="37.7308" gradientUnits="userSpaceOnUse">
<stop stop-color="#FFFFC8"/>
<stop offset="1" stop-color="#97793D"/>
</linearGradient>
</defs>
</svg>
