<svg width="162" height="162" viewBox="0 0 162 162" fill="none" xmlns="http://www.w3.org/2000/svg">
<g filter="url(#filter0_d_93_3429)">
<g filter="url(#filter1_i_93_3429)">
<path d="M113.308 73.6634L83.1293 33.738L52.9506 73.6634V95.5156V115.405L60.1596 123.211L68.0438 131.739H98.2225L106.099 123.211L113.308 115.405V73.6634Z" fill="url(#paint0_linear_93_3429)"/>
</g>
<path d="M98.2228 131.74L92.7675 118.128L102.398 106.333L113.308 115.405L98.2228 131.74Z" fill="url(#paint1_linear_93_3429)"/>
<path opacity="0.7" d="M113.308 73.6635L102.398 83.6507V106.333L113.308 115.405V73.6635Z" fill="url(#paint2_linear_93_3429)"/>
<path opacity="0.7" d="M113.308 73.6635L102.398 83.6507V106.333L113.308 115.405V73.6635Z" fill="url(#paint3_linear_93_3429)"/>
<path opacity="0.7" d="M83.1289 33.738V55.823L102.397 83.6505L113.308 73.6633L83.1289 33.738Z" fill="url(#paint4_linear_93_3429)"/>
<path d="M98.2224 131.739L92.7671 118.128H73.499L68.0437 131.739H98.2224Z" fill="url(#paint5_linear_93_3429)"/>
<path d="M52.9506 115.405L63.8689 106.333L73.4991 118.128L68.0438 131.74L52.9506 115.405Z" fill="url(#paint6_linear_93_3429)"/>
<path d="M52.9506 115.405L63.8689 106.333L73.4991 118.128L68.0438 131.74L52.9506 115.405Z" fill="url(#paint7_linear_93_3429)"/>
<path opacity="0.7" d="M52.9506 115.405L63.8689 106.333L63.8689 83.6505L52.9506 73.6633L52.9506 115.405Z" fill="url(#paint8_linear_93_3429)"/>
<path opacity="0.7" d="M52.9506 115.405L63.8689 106.333L63.8689 83.6505L52.9506 73.6633L52.9506 115.405Z" fill="url(#paint9_linear_93_3429)"/>
<path d="M52.9506 73.6634L83.1293 33.738V55.8231L63.8689 83.6505L52.9506 73.6634Z" fill="url(#paint10_linear_93_3429)" style="mix-blend-mode:hard-light"/>
<path d="M73.4995 118.128L60.16 123.211L63.8693 106.333L73.4995 118.128Z" fill="url(#paint11_linear_93_3429)" style="mix-blend-mode:hard-light"/>
<path d="M92.7675 118.128L106.099 123.211L102.398 106.333L92.7675 118.128Z" fill="url(#paint12_linear_93_3429)" style="mix-blend-mode:hard-light"/>
<path d="M83.1289 33.738V55.823L113.308 73.6633L83.1289 33.738Z" fill="url(#paint13_linear_93_3429)" style="mix-blend-mode:hard-light"/>
<path d="M83.1289 33.738V55.823L113.308 73.6633L83.1289 33.738Z" fill="url(#paint14_linear_93_3429)" style="mix-blend-mode:hard-light"/>
<path d="M83.1293 33.738V55.823L63.8689 83.6505L83.1293 33.738Z" fill="url(#paint15_radial_93_3429)" fill-opacity="0.5"/>
<path d="M83.1293 33.738V55.823L63.8689 83.6505L83.1293 33.738Z" fill="url(#paint16_radial_93_3429)" fill-opacity="0.5"/>
<g filter="url(#filter2_i_93_3429)">
<path d="M63.7682 106.139L73.8562 118.167H92.4803L102.18 106.139V84.0231L83.1683 55.699L63.7682 84.0231V106.139Z" fill="white" fill-opacity="0.01"/>
</g>
<path d="M99.3554 110.058L102.397 106.333V83.6506L83.1292 55.8231L68.2067 77.3805C81.5151 84.9775 92.3869 96.3537 99.3554 110.058Z" fill="url(#paint17_linear_93_3429)" style="mix-blend-mode:hard-light"/>
<path d="M99.3554 110.058L102.397 106.333V83.6506L83.1292 55.8231L68.2067 77.3805C81.5151 84.9775 92.3869 96.3537 99.3554 110.058Z" fill="url(#paint18_radial_93_3429)" style="mix-blend-mode:hard-light"/>
<path d="M113.308 115.405L97.6095 130.211H68.6569L54.1456 114.419L52.9506 95.5157V115.405L68.0438 131.74H98.2225L113.308 115.405Z" fill="url(#paint19_linear_93_3429)" style="mix-blend-mode:hard-light"/>
<path opacity="0.81" d="M75.1442 67.3623L83.1292 57.9649L101.443 84.1395L102.397 106.333V83.6506L83.1292 55.8232L75.1442 67.3623Z" fill="url(#paint20_linear_93_3429)"/>
<path d="M83.1293 33.738V55.8231L52.9506 73.6634L83.1293 33.738Z" fill="url(#paint21_linear_93_3429)" style="mix-blend-mode:multiply"/>
<path d="M83.1293 33.738V55.8231L52.9506 73.6634L83.1293 33.738Z" fill="url(#paint22_linear_93_3429)" style="mix-blend-mode:multiply"/>
<g filter="url(#filter3_i_93_3429)">
<path d="M63.7682 106.139L73.8562 118.167H92.4803L102.18 106.139V84.0231L83.1683 55.699L63.7682 84.0231V106.139Z" fill="url(#paint23_radial_93_3429)"/>
</g>
<g filter="url(#filter4_i_93_3429)">
<path d="M63.7682 106.139L73.8562 118.167H92.4803L102.18 106.139V84.0231L83.1683 55.699L63.7682 84.0231V106.139Z" fill="url(#paint24_radial_93_3429)"/>
</g>
<path fill-rule="evenodd" clip-rule="evenodd" d="M72.7159 62.8154L73.8188 90.0365L74.9217 62.8154L102.143 61.7125L74.9215 60.6096L73.8186 33.3882L72.7157 60.6097L45.4946 61.7125L72.7159 62.8154Z" fill="url(#paint25_radial_93_3429)" style="mix-blend-mode:hard-light"/>
<path fill-rule="evenodd" clip-rule="evenodd" d="M87.52 119.107L88.1696 135.141L88.8193 119.107L104.854 118.457L88.8199 117.808L88.1703 101.773L87.5206 117.807L71.4861 118.457L87.52 119.107Z" fill="url(#paint26_radial_93_3429)" style="mix-blend-mode:hard-light"/>
<path fill-rule="evenodd" clip-rule="evenodd" d="M106.644 85.3383L107.294 101.373L107.943 85.3386L123.978 84.6889L107.943 84.0393L107.294 68.0048L106.644 84.039L90.61 84.6886L106.644 85.3383Z" fill="url(#paint27_radial_93_3429)" style="mix-blend-mode:hard-light"/>
</g>
<defs>
<filter id="filter0_d_93_3429" x="37.4946" y="33.3882" width="94.4833" height="117.753" filterUnits="userSpaceOnUse" color-interpolation-filters="sRGB">
<feFlood flood-opacity="0" result="BackgroundImageFix"/>
<feColorMatrix in="SourceAlpha" type="matrix" values="0 0 0 0 0 0 0 0 0 0 0 0 0 0 0 0 0 0 127 0" result="hardAlpha"/>
<feOffset dy="8"/>
<feGaussianBlur stdDeviation="4"/>
<feComposite in2="hardAlpha" operator="out"/>
<feColorMatrix type="matrix" values="0 0 0 0 0.275 0 0 0 0 1 0 0 0 0 0.9565 0 0 0 0.3 0"/>
<feBlend mode="normal" in2="BackgroundImageFix" result="effect1_dropShadow_93_3429"/>
<feBlend mode="normal" in="SourceGraphic" in2="effect1_dropShadow_93_3429" result="shape"/>
</filter>
<filter id="filter1_i_93_3429" x="52.9506" y="33.738" width="60.3574" height="102.001" filterUnits="userSpaceOnUse" color-interpolation-filters="sRGB">
<feFlood flood-opacity="0" result="BackgroundImageFix"/>
<feBlend mode="normal" in="SourceGraphic" in2="BackgroundImageFix" result="shape"/>
<feColorMatrix in="SourceAlpha" type="matrix" values="0 0 0 0 0 0 0 0 0 0 0 0 0 0 0 0 0 0 127 0" result="hardAlpha"/>
<feOffset dy="4"/>
<feGaussianBlur stdDeviation="6"/>
<feComposite in2="hardAlpha" operator="arithmetic" k2="-1" k3="1"/>
<feColorMatrix type="matrix" values="0 0 0 0 0.0023264 0 0 0 0 0.229335 0 0 0 0 0.279167 0 0 0 1 0"/>
<feBlend mode="normal" in2="shape" result="effect1_innerShadow_93_3429"/>
</filter>
<filter id="filter2_i_93_3429" x="63.7682" y="55.699" width="38.4121" height="66.4682" filterUnits="userSpaceOnUse" color-interpolation-filters="sRGB">
<feFlood flood-opacity="0" result="BackgroundImageFix"/>
<feBlend mode="normal" in="SourceGraphic" in2="BackgroundImageFix" result="shape"/>
<feColorMatrix in="SourceAlpha" type="matrix" values="0 0 0 0 0 0 0 0 0 0 0 0 0 0 0 0 0 0 127 0" result="hardAlpha"/>
<feOffset dy="4"/>
<feGaussianBlur stdDeviation="30"/>
<feComposite in2="hardAlpha" operator="arithmetic" k2="-1" k3="1"/>
<feColorMatrix type="matrix" values="0 0 0 0 1 0 0 0 0 1 0 0 0 0 1 0 0 0 0.25 0"/>
<feBlend mode="hard-light" in2="shape" result="effect1_innerShadow_93_3429"/>
</filter>
<filter id="filter3_i_93_3429" x="63.7682" y="55.699" width="38.4121" height="66.4682" filterUnits="userSpaceOnUse" color-interpolation-filters="sRGB">
<feFlood flood-opacity="0" result="BackgroundImageFix"/>
<feBlend mode="normal" in="SourceGraphic" in2="BackgroundImageFix" result="shape"/>
<feColorMatrix in="SourceAlpha" type="matrix" values="0 0 0 0 0 0 0 0 0 0 0 0 0 0 0 0 0 0 127 0" result="hardAlpha"/>
<feOffset dy="4"/>
<feGaussianBlur stdDeviation="30"/>
<feComposite in2="hardAlpha" operator="arithmetic" k2="-1" k3="1"/>
<feColorMatrix type="matrix" values="0 0 0 0 1 0 0 0 0 1 0 0 0 0 1 0 0 0 0.25 0"/>
<feBlend mode="hard-light" in2="shape" result="effect1_innerShadow_93_3429"/>
</filter>
<filter id="filter4_i_93_3429" x="63.7682" y="55.699" width="38.4121" height="66.4682" filterUnits="userSpaceOnUse" color-interpolation-filters="sRGB">
<feFlood flood-opacity="0" result="BackgroundImageFix"/>
<feBlend mode="normal" in="SourceGraphic" in2="BackgroundImageFix" result="shape"/>
<feColorMatrix in="SourceAlpha" type="matrix" values="0 0 0 0 0 0 0 0 0 0 0 0 0 0 0 0 0 0 127 0" result="hardAlpha"/>
<feOffset dy="4"/>
<feGaussianBlur stdDeviation="30"/>
<feComposite in2="hardAlpha" operator="arithmetic" k2="-1" k3="1"/>
<feColorMatrix type="matrix" values="0 0 0 0 1 0 0 0 0 1 0 0 0 0 1 0 0 0 0.25 0"/>
<feBlend mode="hard-light" in2="shape" result="effect1_innerShadow_93_3429"/>
</filter>
<linearGradient id="paint0_linear_93_3429" x1="91.2842" y1="63.7574" x2="72.4326" y2="134.934" gradientUnits="userSpaceOnUse">
<stop stop-color="#00FF94"/>
<stop offset="1" stop-color="#00DB1E"/>
</linearGradient>
<linearGradient id="paint1_linear_93_3429" x1="106.911" y1="125.161" x2="97.4843" y2="112.082" gradientUnits="userSpaceOnUse">
<stop stop-color="#6AC229"/>
<stop offset="1" stop-color="#298920"/>
</linearGradient>
<linearGradient id="paint2_linear_93_3429" x1="99.6945" y1="86.1322" x2="119.876" y2="98.5886" gradientUnits="userSpaceOnUse">
<stop stop-color="#B9F031"/>
<stop offset="1" stop-color="#1C4700"/>
</linearGradient>
<linearGradient id="paint3_linear_93_3429" x1="99.6945" y1="86.1322" x2="119.876" y2="98.5886" gradientUnits="userSpaceOnUse">
<stop stop-color="#B9F031"/>
<stop offset="1" stop-color="#1C4700"/>
</linearGradient>
<linearGradient id="paint4_linear_93_3429" x1="106.836" y1="50.6549" x2="102.18" y2="84.023" gradientUnits="userSpaceOnUse">
<stop stop-color="#355309"/>
<stop offset="1" stop-color="#55A209"/>
</linearGradient>
<linearGradient id="paint5_linear_93_3429" x1="93.256" y1="118.167" x2="83.1321" y2="134.472" gradientUnits="userSpaceOnUse">
<stop stop-color="#127607"/>
<stop offset="1" stop-color="#409F04"/>
</linearGradient>
<linearGradient id="paint6_linear_93_3429" x1="61.5284" y1="122.557" x2="69.3829" y2="114.81" gradientUnits="userSpaceOnUse">
<stop stop-color="#8ED22C"/>
<stop offset="1" stop-color="#1B984D"/>
</linearGradient>
<linearGradient id="paint7_linear_93_3429" x1="61.5284" y1="122.557" x2="69.3829" y2="114.81" gradientUnits="userSpaceOnUse">
<stop stop-color="#8ED22C"/>
<stop offset="1" stop-color="#1B984D"/>
</linearGradient>
<linearGradient id="paint8_linear_93_3429" x1="63.768" y1="105.751" x2="54.068" y2="73.935" gradientUnits="userSpaceOnUse">
<stop stop-color="#083E06"/>
<stop offset="1" stop-color="#329221"/>
</linearGradient>
<linearGradient id="paint9_linear_93_3429" x1="63.768" y1="105.751" x2="54.068" y2="73.935" gradientUnits="userSpaceOnUse">
<stop stop-color="#083E06"/>
<stop offset="1" stop-color="#329221"/>
</linearGradient>
<linearGradient id="paint10_linear_93_3429" x1="68.043" y1="84.6559" x2="68.043" y2="50.0271" gradientUnits="userSpaceOnUse">
<stop stop-color="#04390D"/>
<stop offset="1" stop-color="#5BBB07"/>
</linearGradient>
<linearGradient id="paint11_linear_93_3429" x1="64.2529" y1="124.439" x2="68.9342" y2="111.538" gradientUnits="userSpaceOnUse">
<stop stop-color="white"/>
<stop offset="1" stop-color="#5BBB07"/>
</linearGradient>
<linearGradient id="paint12_linear_93_3429" x1="102.012" y1="124.439" x2="97.3308" y2="111.538" gradientUnits="userSpaceOnUse">
<stop stop-color="white"/>
<stop offset="1" stop-color="#5BBB07"/>
</linearGradient>
<linearGradient id="paint13_linear_93_3429" x1="102.61" y1="76.8386" x2="89.5385" y2="40.8156" gradientUnits="userSpaceOnUse">
<stop stop-color="white"/>
<stop offset="1" stop-color="#5BBB07"/>
</linearGradient>
<linearGradient id="paint14_linear_93_3429" x1="102.61" y1="76.8386" x2="89.5385" y2="40.8156" gradientUnits="userSpaceOnUse">
<stop stop-color="white"/>
<stop offset="1" stop-color="#5BBB07"/>
</linearGradient>
<radialGradient id="paint15_radial_93_3429" cx="0" cy="0" r="1" gradientUnits="userSpaceOnUse" gradientTransform="translate(65.7081 54.5349) rotate(-18.2576) scale(39.6312 39.6313)">
<stop stop-color="white"/>
<stop offset="1" stop-color="#5BBB07" stop-opacity="0"/>
</radialGradient>
<radialGradient id="paint16_radial_93_3429" cx="0" cy="0" r="1" gradientUnits="userSpaceOnUse" gradientTransform="translate(65.7081 54.5349) rotate(-18.2576) scale(39.6312 39.6313)">
<stop stop-color="white"/>
<stop offset="1" stop-color="#5BBB07" stop-opacity="0"/>
</radialGradient>
<linearGradient id="paint17_linear_93_3429" x1="68.206" y1="82.9386" x2="102.398" y2="82.9386" gradientUnits="userSpaceOnUse">
<stop stop-color="#ADEC7A"/>
<stop offset="1" stop-color="#298920"/>
</linearGradient>
<radialGradient id="paint18_radial_93_3429" cx="0" cy="0" r="1" gradientUnits="userSpaceOnUse" gradientTransform="translate(83.168 88.2911) rotate(-49.9271) scale(95.8308 88.3521)">
<stop stop-color="white"/>
<stop offset="1" stop-color="#22FF0E"/>
</radialGradient>
<linearGradient id="paint19_linear_93_3429" x1="89.8889" y1="134.027" x2="76.3624" y2="96.7493" gradientUnits="userSpaceOnUse">
<stop stop-color="white"/>
<stop offset="1" stop-color="#5BBB07"/>
</linearGradient>
<linearGradient id="paint20_linear_93_3429" x1="93.0095" y1="70.8395" x2="84.6167" y2="102.528" gradientUnits="userSpaceOnUse">
<stop stop-color="white"/>
<stop offset="1" stop-color="#5BBB07"/>
</linearGradient>
<linearGradient id="paint21_linear_93_3429" x1="52.516" y1="74.711" x2="87.8241" y2="33.5829" gradientUnits="userSpaceOnUse">
<stop stop-color="white"/>
<stop offset="1" stop-color="#326505"/>
</linearGradient>
<linearGradient id="paint22_linear_93_3429" x1="52.516" y1="74.711" x2="87.8241" y2="33.5829" gradientUnits="userSpaceOnUse">
<stop stop-color="white"/>
<stop offset="1" stop-color="#326505"/>
</linearGradient>
<radialGradient id="paint23_radial_93_3429" cx="0" cy="0" r="1" gradientUnits="userSpaceOnUse" gradientTransform="translate(80.4522 91.3952) rotate(84.6185) scale(26.8906 16.5352)">
<stop stop-color="#FCFF77"/>
<stop offset="1" stop-color="#FCFF5B" stop-opacity="0"/>
</radialGradient>
<radialGradient id="paint24_radial_93_3429" cx="0" cy="0" r="1" gradientUnits="userSpaceOnUse" gradientTransform="translate(80.4522 91.3952) rotate(84.6185) scale(26.8906 16.5352)">
<stop stop-color="#FCFF77"/>
<stop offset="1" stop-color="#FCFF5B" stop-opacity="0"/>
</radialGradient>
<radialGradient id="paint25_radial_93_3429" cx="0" cy="0" r="1" gradientUnits="userSpaceOnUse" gradientTransform="translate(73.8186 61.7124) rotate(90) scale(28.3241 28.324)">
<stop stop-color="white"/>
<stop offset="1" stop-color="white" stop-opacity="0"/>
</radialGradient>
<radialGradient id="paint26_radial_93_3429" cx="0" cy="0" r="1" gradientUnits="userSpaceOnUse" gradientTransform="translate(88.1701 118.457) rotate(90) scale(16.6841)">
<stop stop-color="white"/>
<stop offset="1" stop-color="white" stop-opacity="0"/>
</radialGradient>
<radialGradient id="paint27_radial_93_3429" cx="0" cy="0" r="1" gradientUnits="userSpaceOnUse" gradientTransform="translate(107.294 84.6889) rotate(90) scale(16.6841)">
<stop stop-color="white"/>
<stop offset="1" stop-color="white" stop-opacity="0"/>
</radialGradient>
</defs>
</svg>
