<svg width="21" height="34" viewBox="0 0 21 34" fill="none" xmlns="http://www.w3.org/2000/svg">
<g filter="url(#filter0_i_235_718)">
<path d="M20.6796 13.4677L10.4997 0.00012207L0.319824 13.4677V20.8389V27.5479L2.75158 30.1812L5.41108 33.0579H15.591L18.2478 30.1812L20.6796 27.5479V13.4677Z" fill="url(#paint0_linear_235_718)"/>
</g>
<path d="M15.5912 33.0579L13.751 28.4666L16.9994 24.4878L20.6798 27.5478L15.5912 33.0579Z" fill="url(#paint1_linear_235_718)"/>
<path opacity="0.7" d="M20.6799 13.4677L16.9995 16.8365V24.4878L20.6799 27.5478L20.6799 13.4677Z" fill="url(#paint2_linear_235_718)"/>
<path opacity="0.7" d="M20.6799 13.4677L16.9995 16.8365V24.4878L20.6799 27.5478L20.6799 13.4677Z" fill="url(#paint3_linear_235_718)"/>
<path opacity="0.7" d="M10.4995 1.52588e-05L10.4995 7.44974L16.999 16.8365L20.6794 13.4676L10.4995 1.52588e-05Z" fill="url(#paint4_linear_235_718)"/>
<path d="M15.591 33.0579L13.7508 28.4666H7.25131L5.41113 33.0579H15.591Z" fill="url(#paint5_linear_235_718)"/>
<path d="M0.319824 27.5478L4.0028 24.4878L7.25126 28.4666L5.41108 33.0579L0.319824 27.5478Z" fill="url(#paint6_linear_235_718)"/>
<path d="M0.319824 27.5478L4.0028 24.4878L7.25126 28.4666L5.41108 33.0579L0.319824 27.5478Z" fill="url(#paint7_linear_235_718)"/>
<path opacity="0.7" d="M0.319824 27.5477L4.0028 24.4878L4.0028 16.8365L0.319824 13.4676L0.319824 27.5477Z" fill="url(#paint8_linear_235_718)"/>
<path opacity="0.7" d="M0.319824 27.5477L4.0028 24.4878L4.0028 16.8365L0.319824 13.4676L0.319824 27.5477Z" fill="url(#paint9_linear_235_718)"/>
<path d="M0.319824 13.4677L10.4997 0.00012207V7.44984L4.0028 16.8366L0.319824 13.4677Z" fill="url(#paint10_linear_235_718)" style="mix-blend-mode:hard-light"/>
<path d="M7.25163 28.4666L2.75195 30.1812L4.00317 24.4878L7.25163 28.4666Z" fill="url(#paint11_linear_235_718)" style="mix-blend-mode:hard-light"/>
<path d="M13.751 28.4666L18.248 30.1812L16.9994 24.4878L13.751 28.4666Z" fill="url(#paint12_linear_235_718)" style="mix-blend-mode:hard-light"/>
<path d="M10.4995 1.52588e-05L10.4995 7.44974L20.6794 13.4676L10.4995 1.52588e-05Z" fill="url(#paint13_linear_235_718)" style="mix-blend-mode:hard-light"/>
<path d="M10.4995 1.52588e-05L10.4995 7.44974L20.6794 13.4676L10.4995 1.52588e-05Z" fill="url(#paint14_linear_235_718)" style="mix-blend-mode:hard-light"/>
<path d="M10.4994 1.52588e-05V7.44974L4.00244 16.8365L10.4994 1.52588e-05Z" fill="url(#paint15_radial_235_718)" fill-opacity="0.5"/>
<path d="M10.4994 1.52588e-05V7.44974L4.00244 16.8365L10.4994 1.52588e-05Z" fill="url(#paint16_radial_235_718)" fill-opacity="0.5"/>
<g filter="url(#filter1_i_235_718)">
<path d="M3.96875 24.4224L7.37164 28.4797H13.6539L16.9259 24.4224V16.9622L10.5128 7.40793L3.96875 16.9622L3.96875 24.4224Z" fill="white" fill-opacity="0.01"/>
</g>
<path d="M15.9734 25.7443L16.9995 24.4878V16.8365L10.5 7.44978L5.46631 14.7215C9.95551 17.2841 13.6228 21.1216 15.9734 25.7443Z" fill="url(#paint17_linear_235_718)" style="mix-blend-mode:hard-light"/>
<path d="M15.9734 25.7443L16.9995 24.4878V16.8365L10.5 7.44978L5.46631 14.7215C9.95551 17.2841 13.6228 21.1216 15.9734 25.7443Z" fill="url(#paint18_radial_235_718)" style="mix-blend-mode:hard-light"/>
<path d="M20.6796 27.5478L15.3842 32.5422H5.61787L0.722936 27.2154L0.319824 20.8389L0.319824 27.5478L5.41108 33.0579H15.591L20.6796 27.5478Z" fill="url(#paint19_linear_235_718)" style="mix-blend-mode:hard-light"/>
<path opacity="0.81" d="M7.80615 11.3422L10.4997 8.17226L16.6772 17.0015L16.9992 24.4878V16.8366L10.4997 7.4498L7.80615 11.3422Z" fill="url(#paint20_linear_235_718)"/>
<path d="M10.4997 0.00012207V7.44984L0.319824 13.4677L10.4997 0.00012207Z" fill="url(#paint21_linear_235_718)" style="mix-blend-mode:multiply"/>
<path d="M10.4997 0.00012207V7.44984L0.319824 13.4677L10.4997 0.00012207Z" fill="url(#paint22_linear_235_718)" style="mix-blend-mode:multiply"/>
<g filter="url(#filter2_i_235_718)">
<path d="M3.96875 24.4224L7.37164 28.4797H13.6539L16.9259 24.4224V16.9622L10.5128 7.40793L3.96875 16.9622L3.96875 24.4224Z" fill="url(#paint23_radial_235_718)"/>
</g>
<g filter="url(#filter3_i_235_718)">
<path d="M3.96875 24.4224L7.37164 28.4797H13.6539L16.9259 24.4224V16.9622L10.5128 7.40793L3.96875 16.9622L3.96875 24.4224Z" fill="url(#paint24_radial_235_718)"/>
</g>
<defs>
<filter id="filter0_i_235_718" x="0.319824" y="0.00012207" width="20.3599" height="37.0578" filterUnits="userSpaceOnUse" color-interpolation-filters="sRGB">
<feFlood flood-opacity="0" result="BackgroundImageFix"/>
<feBlend mode="normal" in="SourceGraphic" in2="BackgroundImageFix" result="shape"/>
<feColorMatrix in="SourceAlpha" type="matrix" values="0 0 0 0 0 0 0 0 0 0 0 0 0 0 0 0 0 0 127 0" result="hardAlpha"/>
<feOffset dy="4"/>
<feGaussianBlur stdDeviation="6"/>
<feComposite in2="hardAlpha" operator="arithmetic" k2="-1" k3="1"/>
<feColorMatrix type="matrix" values="0 0 0 0 0.0023264 0 0 0 0 0.229335 0 0 0 0 0.279167 0 0 0 1 0"/>
<feBlend mode="normal" in2="shape" result="effect1_innerShadow_235_718"/>
</filter>
<filter id="filter1_i_235_718" x="3.96875" y="7.40793" width="12.957" height="25.0718" filterUnits="userSpaceOnUse" color-interpolation-filters="sRGB">
<feFlood flood-opacity="0" result="BackgroundImageFix"/>
<feBlend mode="normal" in="SourceGraphic" in2="BackgroundImageFix" result="shape"/>
<feColorMatrix in="SourceAlpha" type="matrix" values="0 0 0 0 0 0 0 0 0 0 0 0 0 0 0 0 0 0 127 0" result="hardAlpha"/>
<feOffset dy="4"/>
<feGaussianBlur stdDeviation="30"/>
<feComposite in2="hardAlpha" operator="arithmetic" k2="-1" k3="1"/>
<feColorMatrix type="matrix" values="0 0 0 0 1 0 0 0 0 1 0 0 0 0 1 0 0 0 0.25 0"/>
<feBlend mode="hard-light" in2="shape" result="effect1_innerShadow_235_718"/>
</filter>
<filter id="filter2_i_235_718" x="3.96875" y="7.40793" width="12.957" height="25.0718" filterUnits="userSpaceOnUse" color-interpolation-filters="sRGB">
<feFlood flood-opacity="0" result="BackgroundImageFix"/>
<feBlend mode="normal" in="SourceGraphic" in2="BackgroundImageFix" result="shape"/>
<feColorMatrix in="SourceAlpha" type="matrix" values="0 0 0 0 0 0 0 0 0 0 0 0 0 0 0 0 0 0 127 0" result="hardAlpha"/>
<feOffset dy="4"/>
<feGaussianBlur stdDeviation="30"/>
<feComposite in2="hardAlpha" operator="arithmetic" k2="-1" k3="1"/>
<feColorMatrix type="matrix" values="0 0 0 0 1 0 0 0 0 1 0 0 0 0 1 0 0 0 0.25 0"/>
<feBlend mode="hard-light" in2="shape" result="effect1_innerShadow_235_718"/>
</filter>
<filter id="filter3_i_235_718" x="3.96875" y="7.40793" width="12.957" height="25.0718" filterUnits="userSpaceOnUse" color-interpolation-filters="sRGB">
<feFlood flood-opacity="0" result="BackgroundImageFix"/>
<feBlend mode="normal" in="SourceGraphic" in2="BackgroundImageFix" result="shape"/>
<feColorMatrix in="SourceAlpha" type="matrix" values="0 0 0 0 0 0 0 0 0 0 0 0 0 0 0 0 0 0 127 0" result="hardAlpha"/>
<feOffset dy="4"/>
<feGaussianBlur stdDeviation="30"/>
<feComposite in2="hardAlpha" operator="arithmetic" k2="-1" k3="1"/>
<feColorMatrix type="matrix" values="0 0 0 0 1 0 0 0 0 1 0 0 0 0 1 0 0 0 0.25 0"/>
<feBlend mode="hard-light" in2="shape" result="effect1_innerShadow_235_718"/>
</filter>
<linearGradient id="paint0_linear_235_718" x1="13.2505" y1="10.1262" x2="6.89149" y2="34.1356" gradientUnits="userSpaceOnUse">
<stop stop-color="#00FF94"/>
<stop offset="1" stop-color="#00DB1E"/>
</linearGradient>
<linearGradient id="paint1_linear_235_718" x1="18.522" y1="30.8389" x2="15.3421" y2="26.4271" gradientUnits="userSpaceOnUse">
<stop stop-color="#6AC229"/>
<stop offset="1" stop-color="#298920"/>
</linearGradient>
<linearGradient id="paint2_linear_235_718" x1="16.0877" y1="17.6736" x2="22.8953" y2="21.8754" gradientUnits="userSpaceOnUse">
<stop stop-color="#B9F031"/>
<stop offset="1" stop-color="#1C4700"/>
</linearGradient>
<linearGradient id="paint3_linear_235_718" x1="16.0877" y1="17.6736" x2="22.8953" y2="21.8754" gradientUnits="userSpaceOnUse">
<stop stop-color="#B9F031"/>
<stop offset="1" stop-color="#1C4700"/>
</linearGradient>
<linearGradient id="paint4_linear_235_718" x1="18.4963" y1="5.70642" x2="16.9258" y2="16.9621" gradientUnits="userSpaceOnUse">
<stop stop-color="#355309"/>
<stop offset="1" stop-color="#55A209"/>
</linearGradient>
<linearGradient id="paint5_linear_235_718" x1="13.9157" y1="28.4797" x2="10.5007" y2="33.9796" gradientUnits="userSpaceOnUse">
<stop stop-color="#127607"/>
<stop offset="1" stop-color="#409F04"/>
</linearGradient>
<linearGradient id="paint6_linear_235_718" x1="3.2133" y1="29.9604" x2="5.86277" y2="27.3474" gradientUnits="userSpaceOnUse">
<stop stop-color="#8ED22C"/>
<stop offset="1" stop-color="#1B984D"/>
</linearGradient>
<linearGradient id="paint7_linear_235_718" x1="3.2133" y1="29.9604" x2="5.86277" y2="27.3474" gradientUnits="userSpaceOnUse">
<stop stop-color="#8ED22C"/>
<stop offset="1" stop-color="#1B984D"/>
</linearGradient>
<linearGradient id="paint8_linear_235_718" x1="3.96876" y1="24.2915" x2="0.696745" y2="13.5593" gradientUnits="userSpaceOnUse">
<stop stop-color="#083E06"/>
<stop offset="1" stop-color="#329221"/>
</linearGradient>
<linearGradient id="paint9_linear_235_718" x1="3.96876" y1="24.2915" x2="0.696745" y2="13.5593" gradientUnits="userSpaceOnUse">
<stop stop-color="#083E06"/>
<stop offset="1" stop-color="#329221"/>
</linearGradient>
<linearGradient id="paint10_linear_235_718" x1="5.41079" y1="17.1757" x2="5.41079" y2="5.49475" gradientUnits="userSpaceOnUse">
<stop stop-color="#04390D"/>
<stop offset="1" stop-color="#5BBB07"/>
</linearGradient>
<linearGradient id="paint11_linear_235_718" x1="4.13256" y1="30.5952" x2="5.71166" y2="26.2433" gradientUnits="userSpaceOnUse">
<stop stop-color="white"/>
<stop offset="1" stop-color="#5BBB07"/>
</linearGradient>
<linearGradient id="paint12_linear_235_718" x1="16.8694" y1="30.5952" x2="15.2903" y2="26.2433" gradientUnits="userSpaceOnUse">
<stop stop-color="white"/>
<stop offset="1" stop-color="#5BBB07"/>
</linearGradient>
<linearGradient id="paint13_linear_235_718" x1="17.0708" y1="14.5387" x2="12.6616" y2="2.38743" gradientUnits="userSpaceOnUse">
<stop stop-color="white"/>
<stop offset="1" stop-color="#5BBB07"/>
</linearGradient>
<linearGradient id="paint14_linear_235_718" x1="17.0708" y1="14.5387" x2="12.6616" y2="2.38743" gradientUnits="userSpaceOnUse">
<stop stop-color="white"/>
<stop offset="1" stop-color="#5BBB07"/>
</linearGradient>
<radialGradient id="paint15_radial_235_718" cx="0" cy="0" r="1" gradientUnits="userSpaceOnUse" gradientTransform="translate(4.62285 7.01522) rotate(-18.2576) scale(13.3684)">
<stop stop-color="white"/>
<stop offset="1" stop-color="#5BBB07" stop-opacity="0"/>
</radialGradient>
<radialGradient id="paint16_radial_235_718" cx="0" cy="0" r="1" gradientUnits="userSpaceOnUse" gradientTransform="translate(4.62285 7.01522) rotate(-18.2576) scale(13.3684)">
<stop stop-color="white"/>
<stop offset="1" stop-color="#5BBB07" stop-opacity="0"/>
</radialGradient>
<linearGradient id="paint17_linear_235_718" x1="5.4661" y1="16.5964" x2="16.9999" y2="16.5964" gradientUnits="userSpaceOnUse">
<stop stop-color="#ADEC7A"/>
<stop offset="1" stop-color="#298920"/>
</linearGradient>
<radialGradient id="paint18_radial_235_718" cx="0" cy="0" r="1" gradientUnits="userSpaceOnUse" gradientTransform="translate(10.5131 18.4019) rotate(-49.9271) scale(32.3256 29.8029)">
<stop stop-color="white"/>
<stop offset="1" stop-color="#22FF0E"/>
</radialGradient>
<linearGradient id="paint19_linear_235_718" x1="12.7799" y1="33.8296" x2="8.2171" y2="21.255" gradientUnits="userSpaceOnUse">
<stop stop-color="white"/>
<stop offset="1" stop-color="#5BBB07"/>
</linearGradient>
<linearGradient id="paint20_linear_235_718" x1="13.8325" y1="12.5151" x2="11.0014" y2="23.2042" gradientUnits="userSpaceOnUse">
<stop stop-color="white"/>
<stop offset="1" stop-color="#5BBB07"/>
</linearGradient>
<linearGradient id="paint21_linear_235_718" x1="0.173222" y1="13.8211" x2="12.0834" y2="-0.0522154" gradientUnits="userSpaceOnUse">
<stop stop-color="white"/>
<stop offset="1" stop-color="#326505"/>
</linearGradient>
<linearGradient id="paint22_linear_235_718" x1="0.173222" y1="13.8211" x2="12.0834" y2="-0.0522154" gradientUnits="userSpaceOnUse">
<stop stop-color="white"/>
<stop offset="1" stop-color="#326505"/>
</linearGradient>
<radialGradient id="paint23_radial_235_718" cx="0" cy="0" r="1" gradientUnits="userSpaceOnUse" gradientTransform="translate(9.59661 19.4489) rotate(84.6185) scale(9.07074 5.57766)">
<stop stop-color="#FCFF77"/>
<stop offset="1" stop-color="#FCFF5B" stop-opacity="0"/>
</radialGradient>
<radialGradient id="paint24_radial_235_718" cx="0" cy="0" r="1" gradientUnits="userSpaceOnUse" gradientTransform="translate(9.59661 19.4489) rotate(84.6185) scale(9.07074 5.57766)">
<stop stop-color="#FCFF77"/>
<stop offset="1" stop-color="#FCFF5B" stop-opacity="0"/>
</radialGradient>
</defs>
</svg>
