<svg width="32" height="77" viewBox="0 0 32 77" fill="none" xmlns="http://www.w3.org/2000/svg">
<path fill-rule="evenodd" clip-rule="evenodd" d="M10.3111 4.97776L14.7555 0.533315L14.7554 0.533315C15.4667 -0.177875 16.5331 -0.177875 17.2443 0.533935L21.6887 4.97838C22.3999 5.68965 22.3999 6.75608 21.6887 7.46727C21.3334 7.82255 20.8889 8.00051 20.4443 8.00051C19.9997 8.00051 19.5552 7.82255 19.1999 7.46727L15.9999 4.26727L12.7999 7.46727C12.4446 7.82255 12 8.00051 11.5555 8.00051C11.1109 8.00051 10.6663 7.82255 10.3111 7.46665C9.59987 6.75538 9.59987 5.68895 10.3111 4.97776ZM0 46.2224V30.2224C0 21.4222 7.19984 14.2224 16 14.2224C24.8002 14.2224 32 21.4222 32 30.2224V46.2224C32 55.0225 24.8002 62.2224 16 62.2224C7.19984 62.2224 0 55.0225 0 46.2224ZM28.4441 30.2217C28.4441 23.3778 22.8446 17.7776 16 17.7776V17.777C9.1554 17.777 3.55587 23.3771 3.55587 30.2217V46.2217C3.55587 53.0657 9.1554 58.6659 16 58.6659C22.844 58.6659 28.4441 53.0663 28.4441 46.2217V30.2217ZM17.7776 31.1114C17.7776 32.0892 16.9778 32.889 16 32.889C15.0222 32.889 14.2223 32.0892 14.2223 31.1114V25.7777C14.2223 24.8 15.0222 24.0001 16 24.0001C16.9777 24.0001 17.7776 24.7999 17.7776 25.7777V31.1114ZM14.7556 75.9113C15.1109 76.2666 15.5554 76.4445 16 76.4445C16.4445 76.4445 16.8891 76.2666 17.2444 75.9113L21.6888 71.4668C22.4 70.7556 22.4 69.6892 21.6888 68.9779C20.9776 68.2667 19.9112 68.2667 19.1999 68.9779L15.9999 72.1779L12.7999 68.9779C12.0888 68.2667 11.0223 68.2667 10.3111 68.9779C9.59987 69.6891 9.59987 70.7556 10.3111 71.4668L14.7556 75.9113Z" fill="white"/>
</svg>
